<?xml version="1.0" encoding="iso-8859-1"?>
<!-- Generator: Adobe Illustrator 19.0.0, SVG Export Plug-In . SVG Version: 6.00 Build 0)  -->
<svg version="1.1" id="Capa_1" xmlns="http://www.w3.org/2000/svg" xmlns:xlink="http://www.w3.org/1999/xlink" x="0px" y="0px"
	 viewBox="0 0 512 512" style="enable-background:new 0 0 512 512;" xml:space="preserve">
<g>
	<g>
		<path d="M256,205c-28.122,0-51,22.879-51,51c0,28.121,22.878,51,51,51s51-22.879,51-51C307,227.879,284.122,205,256,205z M256,277
			c-11.58,0-21-9.421-21-21c0-11.579,9.42-21,21-21s21,9.421,21,21S267.58,277,256,277z"/>
	</g>
</g>
<g>
	<g>
		<path d="M469.977,241c-3.544-51.647-25.345-99.717-62.303-136.675C370.717,67.368,322.647,45.567,271,42.023V0h-30v42.023
			c-51.647,3.544-99.717,25.345-136.674,62.302C67.368,141.283,45.567,189.353,42.023,241H0v30h42.023
			c3.544,51.647,25.345,99.716,62.303,136.675c36.957,36.957,85.028,58.758,136.674,62.302V512h30v-42.023
			c51.647-3.544,99.717-25.345,136.674-62.302c36.957-36.958,58.758-85.028,62.303-136.675H512v-30H469.977z M271,72.113
			C360.795,79.372,432.628,151.205,439.887,241H412.28C405.173,166.379,345.621,106.827,271,99.72V72.113z M241,72.113V99.72
			C166.379,106.827,106.827,166.379,99.72,241H72.112C79.372,151.205,151.205,79.372,241,72.113z M241,439.888
			C151.205,432.628,79.372,360.795,72.112,271H99.72c7.106,74.621,66.659,134.173,141.28,141.28V439.888z M241,346.418v35.692
			c-58.063-6.864-104.246-53.047-111.11-111.11h35.691v-30H129.89c6.864-58.063,53.047-104.246,111.11-111.11v35.692h30V129.89
			c58.063,6.864,104.246,53.047,111.11,111.11h-35.691v30h35.691c-6.864,58.063-53.047,104.246-111.11,111.11v-35.692H241z
			 M271,439.888V412.28c74.621-7.106,134.173-66.659,141.28-141.28h27.608C432.628,360.795,360.795,432.628,271,439.888z"/>
	</g>
</g>
<g>
</g>
<g>
</g>
<g>
</g>
<g>
</g>
<g>
</g>
<g>
</g>
<g>
</g>
<g>
</g>
<g>
</g>
<g>
</g>
<g>
</g>
<g>
</g>
<g>
</g>
<g>
</g>
<g>
</g>
</svg>
